Coordinates
version=1
nRows=24
nColumns=22
inDegrees=yes

Units are S.I. units (second, meters, Newtons, ...)
If the header above contains a line with 'inDegrees', this indicates whether rotational values are in degrees (yes) or radians (no).

endheader
time	pelvis_tilt	pelvis_list	pelvis_rotation	pelvis_tx	pelvis_ty	pelvis_tz	hip_flexion_r	hip_adduction_r	hip_rotation_r	knee_angle_r	ankle_angle_r	subtalar_angle_r	hip_flexion_l	hip_adduction_l	hip_rotation_l	knee_angle_l	ankle_angle_l	subtalar_angle_l	lumbar_extension	lumbar_bending	lumbar_rotation
      1.39000000	     -5.47338740	     -7.84621374	      0.23781276	     -1.04956187	      0.97576568	      0.06148189	      7.75162363	      8.37276475	     -3.07120912	    -14.21119339	      9.46103724	      0.81619607	      5.30045768	     -6.93316899	      3.51684650	     -9.07838144	     11.81152990	     -3.02834088	      4.32168550	      6.48954083	     -8.16428554
      1.40000000	     -5.48933253	     -7.84706367	      0.20780692	     -1.04942840	      0.97573018	      0.06147585	      7.75106167	      8.37149966	     -3.08085017	    -14.19822156	      9.46518283	      0.81626329	      5.30542473	     -6.93225344	      3.51733257	     -9.08524552	     11.81571112	     -3.03045110	      4.31969333	      6.48923121	     -8.16751219
      1.41000000	     -5.54288813	     -7.85703588	      0.16108324	     -1.04935344	      0.97563947	      0.06150334	      7.79657622	      8.38464288	     -3.04955622	    -14.19138162	      9.47163519	      0.81994641	      5.37767039	     -6.94279830	      3.46983597	     -9.13667266	     11.86102791	     -3.05929012	      4.35063136	      6.49749246	     -8.15223865
      1.42000000	     -5.55798867	     -7.85849000	      0.13282045	     -1.04921139	      0.97560610	      0.06149291	      7.79623373	      8.38409795	     -3.05427910	    -14.18201915	      9.47455449	      0.82011817	      5.38210614	     -6.94211328	      3.47132038	     -9.14413646	     11.86444718	     -3.06155317	      4.34788542	      6.49631736	     -8.15510270
      1.43000000	     -5.59232063	     -7.86105946	      0.09841100	     -1.04909330	      0.97554317	      0.06149587	      7.80789830	      8.38881900	     -3.02099238	    -14.15581986	      9.48729759	      0.82138691	      5.42359877	     -6.94342380	      3.43927277	     -9.17827195	     11.90370150	     -3.08064038	      4.36235407	      6.49366952	     -8.14424797
      1.44000000	     -5.60394360	     -7.86376844	      0.07523486	     -1.04896029	      0.97551519	      0.06147925	      7.80859343	      8.38975315	     -3.02299491	    -14.15271674	      9.48797735	      0.82157203	      5.42550691	     -6.94405861	      3.44204722	     -9.18396234	     11.90456060	     -3.08158359	      4.35285227	      6.49017951	     -8.14925453
      1.45000000	     -5.63590462	     -7.86712356	      0.03436201	     -1.04885856	      0.97545389	      0.06146266	      7.82530345	      8.39599481	     -2.95475373	    -14.14160930	      9.50132126	      0.82393336	      5.47880666	     -6.94382057	      3.40190586	     -9.24579076	     11.94877487	     -3.10735966	      4.36254229	      6.49323459	     -8.13710626
      1.46000000	     -5.64804375	     -7.87041360	      0.01493606	     -1.04871932	      0.97542924	      0.06142776	      7.82591056	      8.39642074	     -2.95783058	    -14.13740001	      9.50237686	      0.82418895	      5.48129404	     -6.94383153	      3.40320652	     -9.24986385	     11.94964172	     -3.10853384	      4.35457837	      6.49005047	     -8.13977166
      1.47000000	     -5.67997641	     -7.87237628	     -0.01560313	     -1.04861277	      0.97537223	      0.06139174	      7.83934757	      8.39884865	     -2.91009882	    -14.11911811	      9.51842860	      0.82766524	      5.53853212	     -6.94052290	      3.37117275	     -9.31398618	     11.98444038	     -3.13388881	      4.36535283	      6.48812374	     -8.11997980
      1.48000000	     -5.69140574	     -7.87590572	     -0.03426216	     -1.04846814	      0.97535058	      0.06134032	      7.83978330	      8.39866538	     -2.91151285	    -14.11695421	      9.51918466	      0.82800959	      5.54172209	     -6.93893606	      3.37317664	     -9.31989666	     11.98565629	     -3.13527685	      4.35724241	      6.48622889	     -8.12417484
      1.49000000	     -5.76125625	     -7.88185829	     -0.07124163	     -1.04841500	      0.97524290	      0.06129688	      7.91659612	      8.40370880	     -2.86232956	    -14.13427562	      9.53121649	      0.84385169	      5.65984776	     -6.93824416	      3.33184054	     -9.41458367	     12.02636049	     -3.19079387	      4.40472563	      6.48982779	     -8.10349933
      1.50000000	     -5.77082037	     -7.87877571	     -0.07765334	     -1.04828705	      0.97521850	      0.06120677	      7.90853410	      8.39546350	     -2.84947512	    -14.11908943	      9.53929347	      0.84570937	      5.68743510	     -6.92471374	      3.34143032	     -9.46160033	     12.03532862	     -3.19915908	      4.39141604	      6.47914370	     -8.10910579
      1.51000000	     -5.78583907	     -7.87572359	     -0.08426456	     -1.04816308	      0.97518675	      0.06111459	      7.90808583	      8.38735872	     -2.83459442	    -14.10641606	      9.54805486	      0.84893889	      5.72594635	     -6.91134089	      3.33932092	     -9.51630288	     12.05673232	     -3.21278748	      4.38098447	      6.46637290	     -8.11326652
      1.52000000	     -5.80387687	     -7.87132560	     -0.09470208	     -1.04801703	      0.97514999	      0.06100527	      7.90988138	      8.37666747	     -2.81793182	    -14.09502106	      9.55654705	      0.85271254	      5.76629851	     -6.89469063	      3.33659499	     -9.57343602	     12.07733300	     -3.22724147	      4.37579889	      6.45430567	     -8.11245715
      1.53000000	     -5.85161718	     -7.86120273	     -0.11512275	     -1.04788212	      0.97507235	      0.06090598	      7.95335790	      8.36074887	     -2.79106226	    -14.10268982	      9.57315714	      0.86479334	      5.84070362	     -6.87296300	      3.30678118	     -9.63350549	     12.11009360	     -3.26174773	      4.40080828	      6.43378015	     -8.11562650
      1.54000000	     -5.86617586	     -7.85573298	     -0.11971406	     -1.04770565	      0.97504661	      0.06076979	      7.94472443	      8.34779308	     -2.77710742	    -14.08234615	      9.57916613	      0.86731165	      5.86909480	     -6.85345340	      3.31802891	     -9.67670965	     12.11396359	     -3.26925446	      4.38937021	      6.41744590	     -8.09726788
      1.55000000	     -5.88622987	     -7.83985590	     -0.12893462	     -1.04751246	      0.97501019	      0.06061590	      7.93821881	      8.32349239	     -2.74824954	    -14.05907287	      9.58933848	      0.87018292	      5.90426660	     -6.82125794	      3.30858353	     -9.72454042	     12.13387140	     -3.28287847	      4.38483628	      6.39063924	     -8.09200808
      1.56000000	     -5.91139397	     -7.82184596	     -0.14209433	     -1.04730875	      0.97496901	      0.06044782	      7.93769571	      8.29588401	     -2.71930354	    -14.03842911	      9.60273890	      0.87329244	      5.94113924	     -6.78634426	      3.29499119	     -9.76950253	     12.14968773	     -3.29765356	      4.38499581	      6.36264904	     -8.07572685
      1.57000000	     -5.96358992	     -7.78990510	     -0.17416240	     -1.04714137	      0.97489624	      0.06027748	      7.98385078	      8.25342617	     -2.66855377	    -14.04953362	      9.62706494	      0.88424806	      6.00480654	     -6.73717941	      3.25225749	     -9.81158483	     12.16057381	     -3.33005639	      4.40773929	      6.32210868	     -8.05477221
      1.58000000	     -5.99065127	     -7.78202254	     -0.17668139	     -1.04694694	      0.97485924	      0.06006248	      7.97983725	      8.23192532	     -2.66132454	    -14.01578886	      9.63481200	      0.88811627	      6.04096847	     -6.71070280	      3.25519465	     -9.84543972	     12.16536929	     -3.33949257	      4.40472340	      6.30398424	     -8.02630828
      1.59000000	     -6.05572830	     -7.74632480	     -0.20000840	     -1.04681223	      0.97477239	      0.05982409	      8.03758200	      8.18041811	     -2.61472850	    -14.01875444	      9.65110828	      0.90290817	      6.12904522	     -6.65211458	      3.22243235	     -9.90018808	     12.17808895	     -3.37155346	      4.43510137	      6.26280208	     -8.01596774
      1.60000000	     -6.12259991	     -7.72664701	     -0.21367419	     -1.04669099	      0.97468748	      0.05957999	      8.08912410	      8.14357805	     -2.59989462	    -14.00198773	      9.66055271	      0.91929826	      6.22285337	     -6.61119115	      3.21610319	     -9.95692382	     12.18371818	     -3.39703282	      4.46292805	      6.23262150	     -7.98688697
      1.61000000	     -6.19791855	     -7.71132947	     -0.22659323	     -1.04658521	      0.97459300	      0.05931101	      8.15444520	      8.10896868	     -2.59277621	    -13.99140119	      9.67084557	      0.93685952	      6.32560065	     -6.57345837	      3.20824914	    -10.01093101	     12.18984038	     -3.42002082	      4.49522451	      6.20883370	     -7.95996236
      1.62000000	     -6.23528888	     -7.71276750	     -0.23282119	     -1.04642885	      0.97455449	      0.05901788	      8.16122373	      8.08991697	     -2.60608466	    -13.95282331	      9.67630013	      0.94076884	      6.36795435	     -6.55418207	      3.21450967	    -10.03395716	     12.18988189	     -3.42446480	      4.48405904	      6.20441919	     -7.92185215
